<svg data-v-6805eed4="" version="1.0" xmlns="http://www.w3.org/2000/svg" xmlns:xlink="http://www.w3.org/1999/xlink"
     width="100%" height="100%" viewBox="0 0 340.000000 250.000000" preserveAspectRatio="xMidYMid meet"
     color-interpolation-filters="sRGB" style="margin: auto;">
    <rect data-v-6805eed4="" x="0" y="0" width="100%" height="100%" fill="#fff" fill-opacity="0"
          class="background"></rect>
    <rect data-v-6805eed4="" x="0" y="0" width="100%" height="100%" fill="url(#watermark)" fill-opacity="1"
          class="watermarklayer"></rect>
    <g data-v-6805eed4="" fill="#11999e" class="icon-text-wrapper icon-svg-group iconsvg"
       transform="translate(52.519996643066406,97.50933265686035)">
        <g class="iconsvg-imagesvg" transform="translate(0,0)">
            <g>
                <rect fill="#11999e" fill-opacity="0" stroke-width="2" x="0" y="0" width="40.79999999999992"
                      height="54.981335992561235" class="image-rect"></rect>
                <svg x="0" y="0" width="40.79999999999992" height="54.981335992561235" filtersec="colorsb725099367"
                     class="image-svg-svg primary" style="overflow: visible;">
                    <svg xmlns="http://www.w3.org/2000/svg" viewBox="0 0 12.860000610351562 17.329999923706055">
                        <g>
                            <g>
                                <g>
                                    <path fill="#11999e"
                                          d="M10.71 9.89L8.57 8.66l2.14-1.24 2.15 1.24-2.15 1.23z"></path>
                                    <path fill="#e4f9f5" d="M10.71 4.94L8.57 6.18v2.48l2.14-1.24V4.94z"></path>
                                    <path fill="#11999e" d="M2.14 9.9L0 8.66l2.14-1.23 2.15 1.23L2.14 9.9z"></path>
                                    <path fill="#30e3ca" d="M2.14 4.95l2.15 1.24v2.47L2.14 7.43V4.95z"></path>
                                    <path fill="#11999e"
                                          d="M8.57 6.19L6.43 4.95l2.14-1.24 2.14 1.24-2.14 1.24zM4.29 6.19L2.14 4.95l2.15-1.24 2.14 1.24-2.14 1.24zM6.43 17.33l-2.14-1.24 2.14-1.24 2.14 1.24-2.14 1.24z"></path>
                                    <path fill="#e4f9f5"
                                          d="M6.43 0L0 3.71v4.95l2.14-1.23V4.95l2.15-1.24v12.38l2.14-1.24V0z"></path>
                                    <path d="M6.43 0v14.85l2.14 1.24V3.71L10.71 5v2.42l2.15 1.24v-5zm4.29 4.94z"
                                          fill="#30e3ca"></path>
                                </g>
                            </g>
                        </g>
                    </svg>
                </svg> <!---->
            </g>
        </g>
        <g transform="translate(47.79999923706055,16.625667572021484)">
            <g data-gra="path-name" fill-rule="" class="tp-name iconsvg-namesvg">
                <g transform="scale(1)">
                    <g>
                        <path d="M4.4 1.76Q2.69 1.53 1.58 1.11L1.58 1.11 1.88-1.21Q2.79-0.88 3.94-0.68L3.94-0.68 4.05-0.68Q4.32-0.68 4.37-1.03L4.37-1.03 5.08-6.93Q3.57-6.46 2.06-6.03L2.06-6.03 2.39-8.49Q2.64-8.57 2.88-8.63 3.12-8.69 3.34-8.77L3.34-8.77Q3.72-8.89 4.22-9.03 4.72-9.17 5.35-9.37L5.35-9.37 5.88-13.77 2.89-13.77 3.17-15.98 6.13-15.98 6.61-19.85 8.97-19.85 8.52-15.98 10.95-15.98 10.68-13.77 8.24-13.77 7.84-10.23Q8.64-10.5 10.3-11.16L10.3-11.16 10.03-8.62Q8.42-8.02 7.54-7.74L7.54-7.74 6.63 0.05Q6.53 0.9 6.04 1.34 5.55 1.78 4.8 1.78L4.8 1.78Q4.55 1.78 4.4 1.76L4.4 1.76ZM22.51-8.87L21.26 1.31 11.21 1.31 12.14-6.28Q11.91-5.95 11.41-5.35L11.41-5.35Q10.9-4.7 10.63-4.37L10.63-4.37 8.32-5.4Q10.68-8.09 12.36-10.78L12.36-10.78Q13.64-12.86 15.03-16.08L15.03-16.08 11.41-16.08 11.68-18.39 23.92-18.39 23.64-16.08 17.54-16.08Q16.53-13.44 15.23-11.08L15.23-11.08 20.6-11.08Q22.74-11.08 22.51-8.87L22.51-8.87ZM14.87-8.84L13.89-0.93 19.07-0.93 20.1-8.84 14.87-8.84ZM43.32-14.12L46.98-14.12Q48.54-14.12 48.54-12.94L48.54-12.94Q48.54-12.54 48.42-12.19L48.42-12.19 47.66-9.57 45.45-9.57 46.23-12.16 36.31-12.16 36.53-14.12 41.03-14.12 41.21-15.88 37.11-15.88 37.34-17.86 41.43-17.86 41.66-19.85 43.94-19.85 43.72-17.86 48.34-17.86 48.12-15.88 43.49-15.88 43.32-14.12ZM30.5-9.32L32.71-9.32Q33.59-9.32 34.08-8.87 34.57-8.42 34.57-7.56L34.57-7.56Q34.57-7.31 34.55-7.16L34.55-7.16 33.44 1.88 31.36 1.88 32.44-7.31 30.25-7.31 30.13-6.33Q29.75-3.47 29.27-1.47 28.79 0.53 28.12 1.76L28.12 1.76 26.03 1.21Q27.46-1.86 28.04-6.71L28.04-6.71 29.5-19.12 31.73-19.12 31.06-13.84 32.71-13.84 33.42-19.65 35.45-19.65 34.72-13.84 35.68-13.84 35.45-11.78 30.8-11.78 30.5-9.32ZM40.98-10.58L40.75-8.82 37.16-10.13 37.34-11.76 40.98-10.58ZM41.68-8.72L41.98-11.36 44.17-11.36 43.87-8.74Q43.67-7.19 43.27-5.9L43.27-5.9 48.29-5.9 48.07-3.94 42.49-3.94 42.41-3.79Q45.03-1.98 48.07 0.65L48.07 0.65 45.88 1.81Q43.92-0.05 41.41-2.24L41.41-2.24Q39.32 0.45 35.68 1.83L35.68 1.83 34.02 0.4Q36.18-0.45 37.64-1.49 39.1-2.54 40.05-3.94L40.05-3.94 35.13-3.94 35.35-5.9 41.01-5.9Q41.46-7.14 41.68-8.72L41.68-8.72ZM40.15-8.02L39.9-6.31 36.28-7.59 36.53-9.25 40.15-8.02ZM63.24-15.2L57.36-15.2 57.69-17.96 72.59-17.96 72.26-15.2 66.21-15.2 64.27 0.9 61.31 0.9 63.24-15.2ZM72.66-5.03L72.91-7.14Q73.64-13.19 79.57-13.19L79.57-13.19 80.78-13.19Q85.98-13.19 85.98-8.42L85.98-8.42Q85.98-7.84 85.9-7.16L85.9-7.16 85.65-5.05Q84.92 1.01 78.99 1.01L78.99 1.01 77.79 1.01Q72.59 1.01 72.59-3.77L72.59-3.77Q72.59-4.35 72.66-5.03L72.66-5.03ZM78.12-1.68L79.32-1.68Q82.34-1.68 82.74-4.97L82.74-4.97 83.02-7.24Q83.07-7.74 83.07-7.94L83.07-7.94Q83.07-10.5 80.45-10.5L80.45-10.5 79.25-10.5Q76.23-10.5 75.83-7.21L75.83-7.21 75.55-4.95Q75.5-4.45 75.5-4.25L75.5-4.25Q75.5-1.68 78.12-1.68L78.12-1.68ZM87.91-5.13L88.14-7.04Q88.87-13.09 94.62-13.09L94.62-13.09 97.91-13.09 98.57-18.47 101.46-18.47 99.1 0.9 93.04 0.9Q87.84 0.9 87.84-3.87L87.84-3.87Q87.84-4.45 87.91-5.13L87.91-5.13ZM93.37-1.78L96.53-1.78 97.59-10.45 94.3-10.45Q91.46-10.45 91.06-7.11L91.06-7.11 90.8-5.05Q90.75-4.55 90.75-4.32L90.75-4.32Q90.75-1.78 93.37-1.78L93.37-1.78ZM102.59-5.13L102.81-7.04Q103.54-13.09 109.3-13.09L109.3-13.09 112.59-13.09 113.24-18.47 116.13-18.47 113.77 0.9 107.71 0.9Q102.51 0.9 102.51-3.87L102.51-3.87Q102.51-4.45 102.59-5.13L102.59-5.13ZM108.04-1.78L111.21-1.78 112.26-10.45 108.97-10.45Q106.13-10.45 105.73-7.11L105.73-7.11 105.48-5.05Q105.43-4.55 105.43-4.32L105.43-4.32Q105.43-1.78 108.04-1.78L108.04-1.78ZM119.92 0.9L117.04 0.9 119.4-18.47 122.29-18.47 119.92 0.9ZM130.3-13.19L130.8-13.19Q133.39-13.19 134.71-11.97 136.03-10.75 136.03-8.37L136.03-8.37Q136.03-7.81 135.95-7.16L135.95-7.16 135.68-4.9 126.31-4.9 126.31-4.87Q126.26-4.32 126.26-4.12L126.26-4.12Q126.26-2.84 127-2.22 127.74-1.61 129.5-1.61L129.5-1.61 130.73-1.61Q132.04-1.61 134.7-1.83L134.7-1.83 134.42 0.78Q132.21 1.01 130.45 1.01L130.45 1.01 129.22 1.01Q126.18 1.01 124.76-0.23 123.34-1.46 123.34-3.84L123.34-3.84Q123.34-4.42 123.42-5.03L123.42-5.03 123.67-7.14Q124.02-10.15 125.65-11.67 127.29-13.19 130.3-13.19L130.3-13.19ZM126.61-7.34L133.09-7.34 133.09-7.36Q133.14-7.91 133.14-8.17L133.14-8.17Q133.14-9.37 132.5-10 131.86-10.63 130.48-10.63L130.48-10.63 129.97-10.63Q127.01-10.63 126.61-7.34L126.61-7.34ZM146.83-18.07L148.69-18.07Q152.01-18.04 153.57-16.62 155.13-15.2 155.13-12.16L155.13-12.16Q155.13-11.38 155-10.25L155-10.25 154.62-6.81Q154.07-2.71 152.11-0.87 150.15 0.98 146.33 1.01L146.33 1.01 144.47 1.01Q141.16 0.98 139.6-0.43 138.04-1.83 138.04-4.85L138.04-4.85Q138.04-5.63 138.17-6.81L138.17-6.81 138.54-10.25Q139.07-14.35 141.04-16.19 143.02-18.04 146.83-18.07L146.83-18.07ZM141.56-10.4L141.11-6.66Q141.01-5.65 141.01-5.25L141.01-5.25Q141.01-3.42 141.87-2.6 142.74-1.78 144.72-1.76L144.72-1.76 146.73-1.76Q149.02-1.78 150.14-2.93 151.26-4.07 151.61-6.66L151.61-6.66 152.06-10.4Q152.16-11.41 152.16-11.81L152.16-11.81Q152.16-13.64 151.29-14.46 150.43-15.28 148.44-15.3L148.44-15.3 146.43-15.3Q144.15-15.28 143.03-14.13 141.91-12.99 141.56-10.4L141.56-10.4ZM166.16-17.96L167.26-17.96Q168.32-17.96 170.28-17.91L170.28-17.91 171.83-17.89 171.46-15.1 170-15.15Q167.49-15.2 166.86-15.2L166.86-15.2 165.75-15.2Q163.47-15.2 162.35-14.05 161.23-12.89 160.88-10.3L160.88-10.3 160.43-6.66Q160.33-5.65 160.33-5.25L160.33-5.25Q160.33-3.42 161.19-2.59 162.06-1.76 164.05-1.76L164.05-1.76 165.25-1.76Q166.58-1.76 169.57-1.93L169.57-1.93 170.2-1.96 170 0.8Q167.54 1.01 165 1.01L165 1.01 163.79 1.01Q160.48 0.98 158.92-0.43 157.36-1.83 157.36-4.85L157.36-4.85Q157.36-5.63 157.49-6.81L157.49-6.81 157.86-10.15Q158.39-14.25 160.36-16.09 162.34-17.94 166.16-17.96L166.16-17.96ZM175.28-17.96L183.42-17.96Q185.98-17.94 187.36-16.77 188.74-15.6 188.74-13.39L188.74-13.39Q188.74-13.12 188.69-12.51L188.69-12.51 188.59-11.68Q188.29-9.4 187-8.07 185.7-6.73 183.52-6.38L183.52-6.38 188.64 0.9 185.03 0.9 180.25-6.26 176.81-6.26 175.93 0.9 172.96 0.9 175.28-17.96ZM177.14-8.97L182.39-8.97Q183.82-8.99 184.61-9.57 185.4-10.15 185.58-11.56L185.58-11.56 185.73-12.64Q185.75-12.81 185.75-13.12L185.75-13.12Q185.75-14.25 185.1-14.74 184.45-15.23 183.17-15.25L183.17-15.25 177.91-15.25 177.14-8.97Z"
                              transform="translate(-1.5799999237060547, 19.850000381469727)"></path>
                    </g> <!----> <!----> <!----> <!----> <!----> <!----> <!---->
                </g>
            </g> <!---->
        </g>
    </g>
    <defs v-gra="od"></defs>
</svg>
